<svg width="22" height="20" viewBox="0 0 22 20" fill="none" xmlns="http://www.w3.org/2000/svg">
<path fill-rule="evenodd" clip-rule="evenodd" d="M1.25 0.25C0.835786 0.25 0.5 0.585786 0.5 1C0.5 1.41421 0.835786 1.75 1.25 1.75H2V12.25C2 13.9069 3.34315 15.25 5 15.25H6.20943L5.03849 18.7628C4.9075 19.1558 5.11987 19.5805 5.51283 19.7115C5.90579 19.8425 6.33053 19.6301 6.46151 19.2372L6.79057 18.25H15.2094L15.5385 19.2372C15.6695 19.6301 16.0942 19.8425 16.4872 19.7115C16.8801 19.5805 17.0925 19.1558 16.9615 18.7628L15.7906 15.25H17C18.6569 15.25 20 13.9069 20 12.25V1.75H20.75C21.1642 1.75 21.5 1.41421 21.5 1C21.5 0.585786 21.1642 0.25 20.75 0.25H1.25ZM7.29057 16.75L7.79057 15.25H14.2094L14.7094 16.75H7.29057ZM14.75 4.75C14.75 4.33579 14.4142 4 14 4C13.5858 4 13.25 4.33579 13.25 4.75V10.75C13.25 11.1642 13.5858 11.5 14 11.5C14.4142 11.5 14.75 11.1642 14.75 10.75V4.75ZM11.75 7C11.75 6.58579 11.4142 6.25 11 6.25C10.5858 6.25 10.25 6.58579 10.25 7V10.75C10.25 11.1642 10.5858 11.5 11 11.5C11.4142 11.5 11.75 11.1642 11.75 10.75V7ZM8.75 9.25C8.75 8.83579 8.41421 8.5 8 8.5C7.58579 8.5 7.25 8.83579 7.25 9.25V10.75C7.25 11.1642 7.58579 11.5 8 11.5C8.41421 11.5 8.75 11.1642 8.75 10.75V9.25Z" fill="#CAFF33"/>
</svg>
