<svg width="24" height="24" viewBox="0 0 19 24" fill="none" xmlns="http://www.w3.org/2000/svg">
<path d="M11.1544 5.50259C11.1808 5.53339 11.1852 5.54219 11.1896 5.54219C11.6251 5.60377 11.8275 5.9293 12.0607 6.25483C12.329 6.62435 12.6501 6.96308 12.9933 7.27102C13.8951 8.08484 14.4493 9.07023 14.6341 10.2712C14.9552 12.3739 13.7499 14.5339 11.7703 15.3741C8.76576 16.6498 5.40928 14.7098 5.06176 11.4633C4.877 9.73449 5.51046 8.30479 6.83018 7.17863C7.25689 6.81351 7.61321 6.3912 7.90795 5.91171C7.96073 5.82372 8.05751 5.75334 8.14989 5.70935C8.29946 5.63896 8.46663 5.59937 8.65579 5.53339C8.5942 5.4586 8.55021 5.40581 8.50182 5.35303C8.20708 5.04949 7.91235 4.73716 7.61321 4.44242C7.50763 4.33684 7.45924 4.22687 7.46364 4.0773C7.47244 3.45263 7.46804 2.83237 7.46804 2.2077C7.46804 1.95695 7.77597 1.55664 8.02672 1.50825C8.31266 1.45106 8.6074 1.42027 8.89334 1.36308C8.97692 1.34548 9.0693 1.2927 9.11769 1.22671C9.5356 0.66363 10.2702 0.659231 10.6838 1.21791C10.7409 1.2927 10.8509 1.34988 10.9433 1.37188C11.2072 1.42907 11.4756 1.45986 11.7439 1.50825C12.0123 1.56104 12.2982 1.90856 12.2982 2.1813C12.2982 2.81037 12.2938 3.44383 12.3026 4.0729C12.307 4.23566 12.2542 4.34564 12.1442 4.46002C11.8099 4.79874 11.4888 5.14627 11.1544 5.50259ZM9.30685 7.95287C9.29365 8.00566 9.28045 8.03645 9.28485 8.06285C9.34204 8.35758 9.20567 8.48515 8.93293 8.59513C8.41384 8.81069 8.18069 9.24619 8.19388 9.80487C8.20708 10.3592 8.50622 10.7023 9.00771 10.8826C9.22766 10.9618 9.45641 11.019 9.67637 11.0938C9.87872 11.1598 10.0811 11.2258 10.2746 11.305C10.4374 11.3709 10.5298 11.4985 10.5122 11.6833C10.4946 11.8724 10.3758 11.9824 10.2087 12.0132C10.0371 12.0484 9.85233 12.0792 9.68956 12.0396C9.37283 11.9648 9.0693 11.8372 8.73497 11.7229C8.5854 11.9208 8.41384 12.1452 8.20708 12.4223C8.51941 12.5587 8.78776 12.6995 9.0737 12.7962C9.23646 12.849 9.30245 12.9194 9.28045 13.0866C9.26725 13.2053 9.27605 13.3285 9.27605 13.4649C9.5268 13.4649 9.73795 13.4649 9.94911 13.4649C10.2526 13.4649 10.2658 13.4649 10.2482 13.1526C10.2394 12.959 10.2834 12.8534 10.4946 12.827C10.6046 12.8138 10.7145 12.7522 10.8157 12.6951C11.282 12.4399 11.4756 12.0308 11.4668 11.5117C11.458 11.019 11.2116 10.6803 10.7717 10.4823C10.5738 10.3943 10.3626 10.3284 10.1515 10.258C9.88752 10.17 9.62358 10.0908 9.35963 9.99403C9.19687 9.93244 9.13088 9.80047 9.14408 9.62451C9.15728 9.45735 9.25846 9.34297 9.41242 9.31658C9.59718 9.28578 9.79514 9.26819 9.9755 9.29898C10.1955 9.33857 10.4022 9.43975 10.6354 9.51893C10.7805 9.29458 10.9301 9.05703 11.1061 8.77989C10.9037 8.68751 10.7321 8.57314 10.5474 8.54234C10.2878 8.49835 10.2087 8.37958 10.2394 8.13323C10.2482 8.07604 10.1691 7.96167 10.1207 7.95727C9.85673 7.94407 9.57959 7.95287 9.30685 7.95287Z" fill="#CAFF33"/>
<path d="M9.54376 23.1912C8.60676 23.1912 7.66536 23.1648 6.72837 23.2C6.0993 23.222 5.56262 23.0328 5.05672 22.6985C4.33968 22.219 3.68422 21.6735 3.11234 21.0225C2.26772 20.0591 1.41431 19.0957 0.569687 18.1323C-0.120965 17.3405 0.191368 16.1703 1.17676 15.8492C1.29113 15.8096 1.4231 15.7964 1.54188 15.7964C2.32491 15.792 3.11234 15.7876 3.89537 15.8008C4.00535 15.8008 4.13732 15.858 4.2165 15.9328C4.75319 16.4519 5.28108 16.9841 5.80456 17.5164C5.91014 17.622 6.00692 17.644 6.15649 17.622C6.47322 17.5736 6.79875 17.5296 7.11988 17.5296C8.60236 17.5208 10.0804 17.5252 11.5629 17.5252C12.0688 17.5252 12.4427 17.7848 12.5747 18.2159C12.7771 18.8669 12.302 19.4784 11.5761 19.4828C10.5951 19.4872 9.60975 19.4828 8.62876 19.4828C8.4528 19.4828 8.27683 19.4784 8.10087 19.4828C7.78414 19.4916 7.57738 19.694 7.57299 19.9799C7.57299 20.2702 7.77974 20.4902 8.09207 20.4902C9.65374 20.4946 11.2154 20.4946 12.7771 20.4902C13.0938 20.4902 13.3226 20.3142 13.5425 20.1031C14.5631 19.1221 15.5837 18.1411 16.6086 17.1645C17.0266 16.7642 17.5808 16.7466 17.9768 17.1029C18.4035 17.49 18.4123 18.1147 17.9812 18.5502C17.5281 19.0121 17.0661 19.4476 16.6086 19.8919C15.5969 20.8729 14.5851 21.8495 13.5777 22.8305C13.3314 23.068 13.0586 23.1912 12.7111 23.1912C11.6553 23.1868 10.5995 23.1912 9.54376 23.1912Z" fill="#CAFF33"/>
<path d="M4.30939 4.60077C4.7361 5.02748 5.16281 5.45419 5.58072 5.8721C5.32117 6.13164 5.04843 6.40438 4.77569 6.67272C4.37098 6.25481 3.94427 5.81491 3.53516 5.3926C3.7771 5.14625 4.04985 4.86471 4.30939 4.60077Z" fill="#CAFF33"/>
<path d="M15.4169 4.60077C15.6764 4.86031 15.9447 5.13745 16.1955 5.3882C15.7776 5.80611 15.3421 6.24162 14.9198 6.65953C14.6646 6.40438 14.3963 6.12724 14.1279 5.8589C14.5458 5.44979 14.9769 5.02748 15.4169 4.60077Z" fill="#CAFF33"/>
<path d="M16.4288 11.5337C16.4288 11.1598 16.4244 10.8166 16.4332 10.4735C16.4332 10.4295 16.5168 10.3503 16.5608 10.3503C17.0975 10.3416 17.6298 10.3416 18.1665 10.3503C18.2105 10.3503 18.294 10.4163 18.294 10.4515C18.3028 10.8079 18.2984 11.1642 18.2984 11.5337C17.6694 11.5337 17.0623 11.5337 16.4288 11.5337Z" fill="#CAFF33"/>
<path d="M3.28369 11.5469C2.67662 11.5469 2.10914 11.5513 1.53726 11.5425C1.49327 11.5425 1.42288 11.4589 1.41849 11.4105C1.40969 11.1026 1.40529 10.7947 1.41849 10.4867C1.41849 10.4383 1.50647 10.3503 1.55486 10.3503C2.08274 10.3416 2.61063 10.3416 3.13852 10.3503C3.18691 10.3503 3.27489 10.4207 3.27489 10.4647C3.28808 10.8079 3.28369 11.1598 3.28369 11.5469Z" fill="#CAFF33"/>
</svg>
