<svg width="8" height="8" viewBox="0 0 8 8" fill="none" xmlns="http://www.w3.org/2000/svg">
<path fill-rule="evenodd" clip-rule="evenodd" d="M3.83528 0.939453C4.04828 0.939453 4.22095 1.11117 4.22095 1.323V4.00785L6.92063 4.00785C7.13363 4.00785 7.3063 4.17957 7.3063 4.3914C7.3063 4.60323 7.13363 4.77495 6.92063 4.77495H4.22095V7.4598C4.22095 7.67163 4.04828 7.84335 3.83528 7.84335C3.62228 7.84335 3.44961 7.67163 3.44961 7.4598V4.77495H0.749927C0.536928 4.77495 0.364258 4.60323 0.364258 4.3914C0.364258 4.17957 0.536928 4.00785 0.749927 4.00785L3.44961 4.00785V1.323C3.44961 1.11117 3.62228 0.939453 3.83528 0.939453Z" fill="#1A1A1A"/>
</svg>
