<?xml version="1.0" encoding="UTF-8"?>
<svg version="1.1" xmlns="http://www.w3.org/2000/svg" width="64" height="64">
<path d="M0 0 C2.13945698 2.33878527 3.43172696 4.11838669 4.8125 7 C3.97326617 12.7547463 -0.42898001 16.28556334 -4.8515625 19.73828125 C-14.11244448 26.15088509 -22.81734787 29.00957548 -34.0625 27.4375 C-43.88964111 25.34159844 -52.49374733 19.98189324 -58.625 12 C-60.0625 9 -60.0625 9 -59.625 6 C-54.51292901 -2.20578385 -45.61815602 -7.89327337 -36.625 -11 C-22.95579521 -14.06378728 -10.07615087 -9.34236369 0 0 Z M-37.375 -0.9375 C-40.36623508 2.96772358 -41.04272797 6.12093735 -40.625 11 C-39.38166569 14.99094962 -37.30676693 17.49263856 -33.9375 20 C-29.51365853 21.33549931 -26.04457596 21.39690169 -21.625 20 C-18.16954519 17.97711916 -16.18173142 15.64924199 -14.8984375 11.84765625 C-14.20080952 7.84655459 -14.35569731 4.78087626 -16.1875 1.125 C-18.84071417 -2.27655663 -20.57554514 -3.59508709 -24.625 -5 C-29.82806011 -5.63451953 -33.25200593 -4.02974555 -37.375 -0.9375 Z " fill="#59595A" transform="translate(59.625,24)"/>
<path d="M0 0 C2.63183484 1.72430559 2.96429365 2.87090782 3.8125 5.9375 C4.01028636 9.16801051 3.92199114 10.43734514 2 13 C-0.56265486 14.92199114 -1.83198949 15.01028636 -5.0625 14.8125 C-8.12909218 13.96429365 -9.27569441 13.63183484 -11 11 C-11.85736616 7.90029156 -12.25878885 5.84694533 -11.3125 2.75 C-8.13760231 -1.48319691 -4.87987576 -1.34975287 0 0 Z " fill="#59595A" transform="translate(36,25)"/>
</svg>
