<?xml version="1.0" encoding="UTF-8"?>
<svg version="1.1" xmlns="http://www.w3.org/2000/svg" width="64" height="64">
<path d="M0 0 C3.42553454 1.27426075 5.65652766 3.38808302 8.23364258 5.92724609 C9.05741898 6.7350351 9.88119537 7.5428241 10.72993469 8.37509155 C11.60925156 9.24904572 12.48856842 10.12299988 13.39453125 11.0234375 C14.75465584 12.37001938 14.75465584 12.37001938 16.14225769 13.74380493 C18.05555303 15.64259757 19.96628824 17.54365053 21.8737793 19.44824219 C24.32132955 21.89038879 26.78465644 24.31594043 29.25217152 26.73789024 C31.6022951 29.05118765 33.9347403 31.38218148 36.26953125 33.7109375 C37.15896927 34.5808432 38.04840729 35.4507489 38.96479797 36.34701538 C39.77281357 37.1611087 40.58082916 37.97520203 41.41333008 38.81396484 C42.13184647 39.52741058 42.85036285 40.24085632 43.59065247 40.97592163 C45 43 45 43 44.72416687 45.2616272 C44.4851918 45.83529022 44.24621674 46.40895325 44 47 C41.75 46.75 41.75 46.75 39 46 C38.22269531 44.98679687 38.22269531 44.98679687 37.4296875 43.953125 C33.6614149 40.92396696 30.0392283 41.74315172 25.375 42 C12.62713866 42.33954797 4.46361816 39.06492061 -4.828125 30.26953125 C-7.35410485 27.59600585 -8.8240265 25.63621189 -9.8125 22.0625 C-8.55412613 17.31939848 -5.40374652 14.41832359 -2 11 C-1.14341797 10.13955078 -1.14341797 10.13955078 -0.26953125 9.26171875 C0.14941406 8.84535156 0.56835938 8.42898437 1 8 C0.505 7.5875 0.01 7.175 -0.5 6.75 C-2 5 -2 5 -2 1 C-1.34 0.67 -0.68 0.34 0 0 Z M11 18 C9.7839095 18.98730177 9.7839095 18.98730177 9.9453125 20.890625 C10.27414207 25.20830016 10.56643557 27.449256 13.3125 30.9375 C17.82245257 34.39862639 20.23937229 35.26184671 26 35 C26 34.01 26 33.02 26 32 C25.37351562 31.81824219 24.74703125 31.63648438 24.1015625 31.44921875 C23.28429688 31.19785156 22.46703125 30.94648437 21.625 30.6875 C20.81289063 30.44386719 20.00078125 30.20023438 19.1640625 29.94921875 C17 29 17 29 15 26 C14.67 24.80375 14.34 23.6075 14 22.375 C13.67 21.26125 13.34 20.1475 13 19 C12.34 18.67 11.68 18.34 11 18 Z " fill="#59595A" transform="translate(9,10)"/>
<path d="M0 0 C5.33550795 3.74087306 10.85350827 8.12091693 12.640625 14.58203125 C11.00233961 20.75710696 5.8920235 25.02586042 0.828125 28.64453125 C-3.0803878 27.05217419 -5.63632394 25.02526599 -8.171875 21.64453125 C-8.40240575 19.08734758 -8.29392803 16.64514497 -8.171875 14.08203125 C-8.171875 10.54419616 -9.09718873 8.47993581 -11.171875 5.64453125 C-14.95214833 2.87847759 -17.70695197 2.55393968 -22.234375 2.76953125 C-26.27667324 2.91585879 -26.88796981 2.8602992 -30.296875 0.26953125 C-32.171875 -2.35546875 -32.171875 -2.35546875 -32.171875 -4.35546875 C-21.41633892 -7.74759936 -9.37047673 -5.84812127 0 0 Z " fill="#59595A" transform="translate(52.171875,17.35546875)"/>
<path d="M0 0 C4.01686987 -0.46707789 5.56501812 -0.32150834 8.875 2.125 C11.32150834 5.43498188 11.46707789 6.98313013 11 11 C7.84164893 9.60249952 5.67727175 7.94801766 3.25 5.5 C2.63640625 4.8915625 2.0228125 4.283125 1.390625 3.65625 C0 2 0 2 0 0 Z " fill="#59595A" transform="translate(30,23)"/>
</svg>
