<svg width="20" height="20" viewBox="0 0 20 20" fill="none" xmlns="http://www.w3.org/2000/svg">
<path d="M9.58405 0.375962C9.83598 0.208013 10.1642 0.208013 10.4161 0.375962L19.4161 6.37596C19.7608 6.60573 19.8539 7.07138 19.6241 7.41603C19.3944 7.76067 18.9287 7.8538 18.5841 7.62404L10.0001 1.90139L1.4161 7.62404C1.07146 7.8538 0.605806 7.76067 0.376042 7.41603C0.146278 7.07138 0.239408 6.60573 0.584055 6.37596L9.58405 0.375962Z" fill="#CAFF33"/>
<path fill-rule="evenodd" clip-rule="evenodd" d="M18.25 8.3325V18.25H19C19.4142 18.25 19.75 18.5858 19.75 19C19.75 19.4142 19.4142 19.75 19 19.75H1C0.585786 19.75 0.25 19.4142 0.25 19C0.25 18.5858 0.585786 18.25 1 18.25H1.75V8.3325C1.75 7.96317 2.01888 7.64882 2.38374 7.59157C4.86578 7.20211 7.40954 7 10 7C12.5905 7 15.1342 7.20211 17.6163 7.59157C17.9811 7.64882 18.25 7.96317 18.25 8.3325ZM10.75 10.75C10.75 10.3358 10.4142 10 10 10C9.58579 10 9.25 10.3358 9.25 10.75V17.5C9.25 17.9142 9.58579 18.25 10 18.25C10.4142 18.25 10.75 17.9142 10.75 17.5V10.75ZM13.75 10C14.1642 10 14.5 10.3358 14.5 10.75V17.5C14.5 17.9142 14.1642 18.25 13.75 18.25C13.3358 18.25 13 17.9142 13 17.5V10.75C13 10.3358 13.3358 10 13.75 10ZM7 10.75C7 10.3358 6.66421 10 6.25 10C5.83579 10 5.5 10.3358 5.5 10.75V17.5C5.5 17.9142 5.83579 18.25 6.25 18.25C6.66421 18.25 7 17.9142 7 17.5V10.75Z" fill="#CAFF33"/>
<path d="M10 5.875C10.6213 5.875 11.125 5.37132 11.125 4.75C11.125 4.12868 10.6213 3.625 10 3.625C9.37868 3.625 8.875 4.12868 8.875 4.75C8.875 5.37132 9.37868 5.875 10 5.875Z" fill="#CAFF33"/>
</svg>
