<svg width="23" height="16" viewBox="0 0 23 16" fill="none" xmlns="http://www.w3.org/2000/svg">
<path d="M19.7262 7.21479C19.7262 7.81306 19.7343 8.4074 19.7222 9.00568C19.7142 9.32844 19.8065 9.61183 19.9752 9.87948C20.4088 10.5801 20.9829 11.1666 21.5651 11.7452C21.7819 11.9616 22.0067 12.1663 22.2355 12.3671C22.348 12.4655 22.4001 12.5678 22.4001 12.7213C22.3921 13.3786 22.3921 14.032 22.3961 14.6893C22.4001 15.2364 22.1593 15.6458 21.6574 15.8741C21.1435 16.1063 20.6617 16.0079 20.2401 15.6497C19.3689 14.9019 18.5017 14.1501 17.6345 13.4022C17.0443 12.8906 16.4581 12.371 15.8559 11.8751C15.6431 11.6979 15.3902 11.568 15.1453 11.4342C14.7839 11.2374 14.3945 11.1311 13.9729 11.1469C13.6678 11.1587 13.3546 11.1626 13.0495 11.139C12.6039 11.1036 12.2867 10.8005 12.2265 10.3833C12.1703 10.0172 12.3911 9.62364 12.7604 9.48194C12.901 9.42684 13.0575 9.40322 13.2101 9.40322C14.3664 9.39535 15.5227 9.39929 16.683 9.39929C17.1166 9.39929 17.2732 9.24578 17.2732 8.81675C17.2732 7.95082 17.2691 7.0849 17.2732 6.21897C17.2772 5.88834 17.1607 5.62856 16.9078 5.40421C15.4504 4.12106 14.001 2.83004 12.5477 1.53902C12.1582 1.19265 12.114 0.68096 12.4393 0.307037C12.7604 -0.0668871 13.2864 -0.102311 13.6999 0.212572C15.5588 1.62955 17.4137 3.04652 19.2806 4.45562C19.5897 4.68785 19.7343 4.97124 19.7303 5.34517C19.7222 5.96706 19.7262 6.58895 19.7262 7.21479Z" fill="#CAFF33"/>
<path d="M0.804021 13.7644C0.804021 13.4101 0.808036 13.0559 0.800006 12.7017C0.795991 12.5639 0.8522 12.4734 0.944542 12.3789C1.55079 11.7688 2.149 11.1509 2.7432 10.529C2.86766 10.3991 2.96001 10.2456 3.06841 10.1039C3.35346 9.72207 3.48595 9.30485 3.47391 8.81678C3.44982 7.69107 3.47792 6.56143 3.46186 5.43178C3.45384 4.98701 3.61443 4.67213 3.97978 4.39661C5.83465 3.01112 7.66945 1.60202 9.51227 0.196852C9.8977 -0.098351 10.4277 -0.0511186 10.7408 0.303125C11.062 0.665241 11.0339 1.1848 10.6605 1.5233C10.0944 2.03498 9.5203 2.53486 8.95019 3.04261C8.04685 3.84162 7.1435 4.64458 6.24015 5.44359C6.02737 5.63252 5.92298 5.86081 5.92298 6.13634C5.92298 7.05343 5.91897 7.97053 5.92298 8.89156C5.92298 9.23006 6.09963 9.39538 6.44893 9.39538C7.64134 9.39931 8.82975 9.39538 10.0222 9.39931C10.5842 9.39931 10.9777 9.78504 10.9657 10.3046C10.9576 10.7021 10.6645 11.0603 10.259 11.1194C10.0181 11.1548 9.76521 11.1705 9.5203 11.1469C8.69726 11.0682 8.00268 11.3634 7.38841 11.8436C6.76209 12.3317 6.17592 12.8748 5.5777 13.3905C4.69844 14.1462 3.8232 14.9098 2.93993 15.6616C2.22529 16.2716 1.16937 16.004 0.864244 15.1341C0.824096 15.0239 0.812051 14.9019 0.808036 14.7878C0.800006 14.4493 0.804021 14.1068 0.804021 13.7644Z" fill="#CAFF33"/>
<path d="M12.1704 8.02955C12.1704 8.21848 12.1704 8.3956 12.1704 8.58847C11.8331 8.58847 11.5119 8.58847 11.1627 8.58847C11.1627 8.43496 11.1586 8.28539 11.1627 8.13582C11.1667 8.02561 11.1345 7.97838 11.0181 7.95083C10.6849 7.87211 10.3757 7.73828 10.0867 7.50999C10.2713 7.26989 10.448 7.0416 10.6086 6.82906C10.9137 6.9432 11.1908 7.07703 11.4838 7.14394C11.6966 7.19117 11.9335 7.15969 12.1543 7.12426C12.3229 7.09671 12.4313 6.96682 12.4434 6.7897C12.4595 6.60864 12.3631 6.48269 12.2025 6.41971C11.9295 6.31737 11.6444 6.23865 11.3674 6.14812C11.1667 6.08121 10.9579 6.02217 10.7612 5.93951C10.2995 5.74665 10.0545 5.40421 10.0425 4.9004C10.0305 4.37297 10.2312 3.94788 10.713 3.71959C11.0261 3.57002 11.2951 3.45981 11.1386 3.02291C11.4798 3.02291 11.7769 3.01897 12.078 3.03078C12.1102 3.03078 12.1664 3.12918 12.1664 3.18429C12.1864 3.51885 12.1864 3.51098 12.5036 3.62119C12.6883 3.68416 12.865 3.77469 13.0657 3.86522C12.8971 4.12106 12.7606 4.34542 12.608 4.55796C12.5839 4.58945 12.4876 4.58552 12.4314 4.56977C12.1664 4.50286 11.9094 4.41627 11.6444 4.3651C11.54 4.34542 11.4196 4.37691 11.3112 4.40446C11.1506 4.44775 11.0422 4.55403 11.0302 4.72721C11.0181 4.89646 11.0944 5.02635 11.251 5.08933C11.4557 5.17199 11.6645 5.23496 11.8733 5.30187C12.1021 5.37666 12.339 5.43176 12.5598 5.51442C13.1982 5.75846 13.4551 6.14419 13.423 6.77789C13.3909 7.36042 13.0256 7.79339 12.4233 7.96264C12.3511 7.98625 12.2748 8.00593 12.1704 8.02955Z" fill="#CAFF33"/>
</svg>
