<svg width="11" height="11" viewBox="0 0 11 11" fill="none" xmlns="http://www.w3.org/2000/svg">
<path fill-rule="evenodd" clip-rule="evenodd" d="M7.36945 0.711286C7.19553 0.897558 7.20637 1.18878 7.39367 1.36175L8.68979 2.55867L3.38909 2.55867C3.13349 2.55867 2.92629 2.76473 2.92629 3.01893C2.92629 3.27312 3.13349 3.47919 3.38909 3.47919L8.68979 3.47919L7.39367 4.67611C7.20637 4.84908 7.19553 5.1403 7.36945 5.32657C7.54337 5.51284 7.8362 5.52363 8.0235 5.35066L10.1833 3.3562C10.2776 3.26912 10.3311 3.14691 10.3311 3.01893C10.3311 2.89094 10.2776 2.76874 10.1833 2.68165L8.0235 0.687195C7.8362 0.514228 7.54337 0.525014 7.36945 0.711286ZM3.4197 5.62072C3.24577 5.43445 2.95294 5.42366 2.76564 5.59663L0.605896 7.59109C0.511592 7.67818 0.458008 7.80038 0.458008 7.92836C0.458008 8.05635 0.511592 8.17855 0.605896 8.26564L2.76564 10.2601C2.95294 10.4331 3.24577 10.4223 3.4197 10.236C3.59362 10.0497 3.58277 9.75851 3.39547 9.58555L2.09936 8.38862H7.40005C7.65565 8.38862 7.86286 8.18256 7.86286 7.92836C7.86286 7.67417 7.65565 7.4681 7.40005 7.4681H2.09936L3.39547 6.27118C3.58277 6.09821 3.59362 5.80699 3.4197 5.62072Z" fill="#1C1C1C"/>
</svg>
